<?xml version="1.0" encoding="UTF-8"?>
<svg id="Text" xmlns="http://www.w3.org/2000/svg" viewBox="0 0 2695.97 1697.74">
  <defs>
    <style>
      .cls-1 {
        fill: #e92c3a;
      }

      .cls-2 {
        fill: #fff;
      }

      .cls-3 {
        fill: #222634;
      }

      .cls-4 {
        fill: #4672b7;
      }

      .cls-5 {
        fill: #283b85;
      }
    </style>
  </defs>
  <polygon class="cls-4" points="2334.39 848.87 361.56 1507.79 361.56 189.94 2334.39 848.87"/>
  <g>
    <path class="cls-2" d="m700.11,774.18c-5.27-5-11.57-8.81-18.89-11.44-7.33-2.63-15.43-3.94-24.32-3.94h-54.07c-8.73,0-16.75,1.31-24.07,3.94-7.33,2.63-13.58,6.44-18.76,11.44-5.19,5-9.22,11.18-12.1,18.54-2.88,7.36-4.32,15.78-4.32,25.25v55.48c0,9.47,1.44,17.88,4.32,25.24,2.88,7.37,6.91,13.54,12.1,18.54,5.18,4.99,11.44,8.81,18.76,11.44,7.32,2.63,15.35,3.94,24.07,3.94h54.07c8.89,0,16.99-1.31,24.32-3.94,7.32-2.63,13.62-6.44,18.89-11.44,5.27-5,9.34-11.18,12.22-18.54,2.88-7.36,4.32-15.78,4.32-25.24v-16.57h-53.82v12.88c0,8.94-4.2,13.41-12.59,13.41h-40.24c-8.39,0-12.59-4.47-12.59-13.41v-48.12c0-8.94,4.2-13.41,12.59-13.41h40.24c8.39,0,12.59,4.47,12.59,13.41v12.89h53.82v-16.57c0-9.47-1.44-17.88-4.32-25.25-2.88-7.36-6.96-13.54-12.22-18.54Zm9.88,53.51h-40.74v-6.05c0-13.67-6.34-20.51-19.01-20.51h-40.24c-12.84,0-19.26,6.84-19.26,20.51v48.12c0,13.67,6.42,20.51,19.26,20.51h40.24c12.67,0,19.01-6.84,19.01-20.51v-6.05h40.74v9.73c0,8.42-1.32,15.91-3.95,22.48-2.63,6.57-6.3,12.06-10.99,16.44-4.69,4.38-10.29,7.72-16.79,9.99-6.5,2.28-13.62,3.42-21.36,3.42h-54.07c-7.74,0-14.86-1.14-21.36-3.42-6.5-2.28-12.06-5.61-16.67-9.99-4.61-4.38-8.19-9.86-10.74-16.44-2.55-6.57-3.83-14.07-3.83-22.48v-55.48c0-8.42,1.27-15.87,3.83-22.35,2.55-6.48,6.13-11.97,10.74-16.44,4.61-4.47,10.16-7.85,16.67-10.13,6.5-2.28,13.62-3.42,21.36-3.42h54.07c7.73,0,14.85,1.14,21.36,3.42,6.5,2.28,12.1,5.65,16.79,10.13,4.69,4.47,8.35,9.95,10.99,16.44,2.63,6.49,3.95,13.94,3.95,22.35v9.73Z"/>
    <path class="cls-2" d="m952.67,758.79h-60.24l62.96,106.76v67.06h53.82v-67.06l63.2-106.76h-60.49l-29.38,49.17-29.87-49.17Zm62.96,6.84h44.94l-58.02,97.82v62.32h-40.49v-62.32l-57.77-97.82h44.69l33.58,55.22,33.08-55.22Z"/>
    <path class="cls-2" d="m837.13,758.79h-55.8v173.82h55.8v-173.82Zm-5.19,166.98h-45.68v-160.15h45.68v160.15Z"/>
    <path class="cls-2" d="m1239.08,834.53h53.82v-16.57c0-9.47-1.44-17.88-4.32-25.25-2.88-7.36-6.95-13.54-12.22-18.54-5.27-5-11.57-8.81-18.89-11.44-7.32-2.63-15.43-3.94-24.32-3.94h-54.07c-8.73,0-16.75,1.31-24.07,3.94-7.32,2.63-13.58,6.44-18.76,11.44-5.19,5-9.22,11.18-12.1,18.54-2.88,7.36-4.32,15.78-4.32,25.25v55.48c0,9.47,1.44,17.88,4.32,25.24,2.88,7.37,6.91,13.54,12.1,18.54,5.18,4.99,11.44,8.81,18.76,11.44,7.32,2.63,15.35,3.94,24.07,3.94h54.07c8.89,0,16.99-1.31,24.32-3.94,7.32-2.63,13.62-6.44,18.89-11.44,5.27-5,9.34-11.18,12.22-18.54,2.88-7.36,4.32-15.78,4.32-25.24v-16.57h-53.82v12.88c0,8.94-4.2,13.41-12.59,13.41h-40.24c-8.4,0-12.59-4.47-12.59-13.41v-48.12c0-8.94,4.2-13.41,12.59-13.41h40.24c8.39,0,12.59,4.47,12.59,13.41v12.89Zm-12.59-33.4h-40.24c-12.84,0-19.26,6.84-19.26,20.51v48.12c0,13.67,6.42,20.51,19.26,20.51h40.24c12.67,0,19.01-6.84,19.01-20.51v-6.05h40.74v9.73c0,8.42-1.32,15.91-3.95,22.48-2.64,6.57-6.3,12.06-10.99,16.44-4.69,4.38-10.29,7.72-16.79,9.99-6.5,2.28-13.62,3.42-21.36,3.42h-54.07c-7.74,0-14.86-1.14-21.36-3.42-6.5-2.28-12.06-5.61-16.67-9.99-4.61-4.38-8.19-9.86-10.74-16.44-2.55-6.57-3.83-14.07-3.83-22.48v-55.48c0-8.42,1.27-15.87,3.83-22.35,2.55-6.48,6.13-11.97,10.74-16.44,4.61-4.47,10.16-7.85,16.67-10.13,6.5-2.28,13.62-3.42,21.36-3.42h54.07c7.73,0,14.85,1.14,21.36,3.42,6.5,2.28,12.1,5.65,16.79,10.13,4.69,4.47,8.35,9.95,10.99,16.44,2.63,6.49,3.95,13.94,3.95,22.35v9.73h-40.74v-6.05c0-13.67-6.34-20.51-19.01-20.51Z"/>
    <path class="cls-2" d="m695.04,779.17c-4.69-4.47-10.29-7.85-16.79-10.13-6.5-2.28-13.62-3.42-21.36-3.42h-54.07c-7.74,0-14.86,1.14-21.36,3.42-6.5,2.28-12.06,5.65-16.67,10.13-4.61,4.47-8.19,9.95-10.74,16.44-2.55,6.49-3.83,13.94-3.83,22.35v55.48c0,8.42,1.27,15.91,3.83,22.48,2.55,6.57,6.13,12.06,10.74,16.44,4.61,4.38,10.16,7.72,16.67,9.99,6.5,2.28,13.62,3.42,21.36,3.42h54.07c7.73,0,14.85-1.14,21.36-3.42,6.5-2.28,12.1-5.61,16.79-9.99,4.69-4.38,8.35-9.86,10.99-16.44,2.63-6.57,3.95-14.07,3.95-22.48v-9.73h-40.74v6.05c0,13.67-6.34,20.51-19.01,20.51h-40.24c-12.84,0-19.26-6.84-19.26-20.51v-48.12c0-13.67,6.42-20.51,19.26-20.51h40.24c12.67,0,19.01,6.84,19.01,20.51v6.05h40.74v-9.73c0-8.42-1.32-15.87-3.95-22.35-2.63-6.48-6.3-11.97-10.99-16.44Z"/>
    <rect class="cls-2" x="786.27" y="765.63" width="45.68" height="160.15"/>
    <polygon class="cls-2" points="948.97 765.63 904.28 765.63 962.06 863.45 962.06 925.78 1002.55 925.78 1002.55 863.45 1060.57 765.63 1015.63 765.63 982.55 820.85 948.97 765.63"/>
    <path class="cls-2" d="m1245.5,821.64v6.05h40.74v-9.73c0-8.42-1.32-15.87-3.95-22.35-2.64-6.48-6.3-11.97-10.99-16.44-4.69-4.47-10.29-7.85-16.79-10.13-6.5-2.28-13.62-3.42-21.36-3.42h-54.07c-7.74,0-14.86,1.14-21.36,3.42-6.5,2.28-12.06,5.65-16.67,10.13-4.61,4.47-8.19,9.95-10.74,16.44-2.55,6.49-3.83,13.94-3.83,22.35v55.48c0,8.42,1.27,15.91,3.83,22.48,2.55,6.57,6.13,12.06,10.74,16.44,4.61,4.38,10.16,7.72,16.67,9.99,6.5,2.28,13.62,3.42,21.36,3.42h54.07c7.73,0,14.85-1.14,21.36-3.42,6.5-2.28,12.1-5.61,16.79-9.99,4.69-4.38,8.35-9.86,10.99-16.44,2.63-6.57,3.95-14.07,3.95-22.48v-9.73h-40.74v6.05c0,13.67-6.34,20.51-19.01,20.51h-40.24c-12.84,0-19.26-6.84-19.26-20.51v-48.12c0-13.67,6.42-20.51,19.26-20.51h40.24c12.67,0,19.01,6.84,19.01,20.51Z"/>
  </g>
  <polyline class="cls-2" points="361.57 189.95 361.57 663.75 1782.91 663.75"/>
  <polyline class="cls-5" points="361.57 189.95 361.57 500.58 1293.42 500.58"/>
  <polyline class="cls-2" points="361.57 1507.79 361.57 1033.99 1782.91 1033.99"/>
  <polyline class="cls-1" points="361.57 1507.79 361.57 1197.16 1293.42 1197.16"/>
  <g>
    <g>
      <path class="cls-2" d="m1523.76,839.99c15.55-5.41,27.73-15.16,32.36-17.47,2.31-1.15,4.72-1.79,7.13-2.47.5-.14.51-.23.02-.38-18.98-5.68-37.67-12.63-56.01-20.12-1.99-.81-3.98-1.26-6.03-1.61-.59-.1-.65.1-.2.47,2.22,1.87,4.81,3.61,7.32,5.06.46.27.47.39-.09.32-5.96-.81-11.75-1.61-17.67-3.17-25.54-6.72-48.47-20.23-69.55-35.77-.07-.05-.35-.34-.57-.26-.47.17-.34,1.94-.06,3.06.82,3.32,3.66,3.65,4.78,6.62.8,2.12.14,4.07,0,4.78-.7,3.48,4.18,11.02,25.8,28.1,0,0,2.17.55,17.91,10.18.17.11.3.23,0,.3-2.78.62-5.8,1.29-8.52,1.92-.69.16-.59.28-.06.46,4.87,1.63,9.89,2.98,14.88,4.24,1.06.27,2,.69,2.94,1.26.12.07.14.21-.02.31-.16.1-.44.25-.62.36.35.13.68.24,1.01.34-.33-.1-.66-.21-1.03-.33-1.44.75-3.03,1.56-4.42,2.31-.43.23-.32.32.05.4,4.05.8,8.45,1.53,12.44,2.2,1.54.26,2.47.51,3.81,1.01.26.1.22.14,0,.27-1.51.9-3.29,1.85-4.76,2.74-.51.31-.42.41.06.48,6.97,1.1,14.03,2.22,21.05,2.67.77.05.75.22.18.64-.57.42-1.58.9-2.14,1.33-.2.15-.32.25-.3.32.02.12.29.15.39.16.64.08,11.9-.39,19.94-.74Z"/>
      <path class="cls-2" d="m1808.85,735.42s-.09-.05-.18-.03c-.07.01-.11.07-.25.16-8.64,5.58-14.62,10.05-24.21,15.26-18.92,10.26-43.87,11.75-65.02,16.69-6.48,1.52-13.62,2.87-20.14,3.93-.95.16-.95.03-.16-.38,3.1-1.63,5.96-3.48,8.56-6,.53-.52-.07-.57-.39-.58-1.04-.05-3.26.81-3.86,1.12-5.37,2.68-19.41,8.83-23.01,10.92-8.05,4.67-29.24,19.87-31.55,21.81-15.43,13-21.59,23.07-38.18,28.93-1.7.6-3.39.89-5.56.94-11.79.24-19.88-7.86-30.35-8.08-4.6-.1-6.73,1.12-10.05,1.79-2.15.44-3.01.89-4.38,1.46-12.53,5.2-22.71,12.1-34.92,18.57-1.22.65-4.94,2.87-6.29,4.73-.87,1.2-2.38,3.29-2.9,4.89,2.26-.92,4.09-1.46,6.66-2.25,1.27-.39,5.28-1.03,6.6-1.32,3.09-.67,14.17-.81,15.21-.75,9.32.56,16.42-.16,23.67,2.91,7.26,3.08,11.59,8.91,17.41,13.63.1-.03.18-.08.27-.14-.08.07-.16.13-.24.19-.07-.05-.11-.09-.13-.1-.43-.34-.23-.18,0,0-.04-.03.04.03.09.07.02.02.04.03.04.03,0,0,0,0,0,0,.02.02.05.04.07.06.11.09.24.19.4.31,2.26,1.77,8.21,6.16,12.11,8.84,2.42,1.67,8.88,5,11.75,6.61,7.06,3.94,22.95,10.95,28.12,12.77,12.54,4.41,19.13,6.18,29.99,7.34,8.15.87,14.68.13,21.91-1.03,1.63-.09,3.27-.21,4.91-.38-.16-.07-.33-.15-.5-.22.18.07.37.15.56.22,3.79,1.36,8.62,2.92,12.15,4.32,2.65,1.05,4.05,1.89,6.26,3.11,2.21,1.22,4.17,2.69,6.36,3.81,1.29.66,2.48,1.18,3.88,1.35,2.58.31,4.88-.39,7.24-1.36,1.77-.73,3.27-1.73,4.81-2.84-.08-.03-.15-.06-.22-.09.07.03.14.05.21.08,1.94.77,3.86,1.49,5.85,2.05.96.27,1.89.44,2.88.5.44.02.86-.04,1.28-.12.66-.14,1.29-.44,1.96-.52,1.05-.13,2.04.06,3.07.29,1.9.42,3.89.95,5.8,1.17,2.12.24,4.11.25,6.21.1.79-.06,1.55-.2,2.32-.41.2-.05.38-.16.55-.27.02-.01,0,0,.02-.01,0,0,0,0,0-.01s0,0,0-.01c0,0,.01,0,.02-.01,0,0,0,0,0-.01,0,0,0,0,0,0,0,0,.01,0,.02-.01,0,0,0,0,0-.01,0,0,0,0,0-.01,0,0,0,0,0-.01s0,0,0-.01c0,0,0,0,0-.01,0,0,0,0,0-.01s0,0,0-.01c0,0,0,0,0-.01,0,0,0,0,0-.01,0,0,0,0,0,0,0,0,0,0,0-.01,0,0,0,0,0-.01,0,0,0,0,0,0,0,0,0,0,0-.01s0,0,0-.01c0,0,0,0,0,0,0,0,0,0,0-.01,0,0,0-.01,0-.02,0,0,0,0,0-.01,0,0,0-.01,0-.02,0,0,0-.01,0-.02,0,0,0,0,0,0,0,0,0-.01,0-.02,0,0,0-.01,0-.02,0,0,0-.01,0-.02,0,0,0,0,0,0,0,0,0-.01-.01-.02,0,0,0-.01,0-.02,0,0,0-.01-.01-.02,0,0,0-.01,0-.02,0,0,0,0,0,0,0,0,0-.01,0-.02,0,0,0-.01-.01-.02,0,0,0-.01-.01-.02,0,0,0-.01-.01-.02,0,0,0-.01-.01-.02,0,0-.02,0-.02-.02,0,0,0-.02-.01-.02,0,0,0-.01-.01-.02,0,0-.01-.01-.02-.02,0,0,0-.01-.01-.02,0,0-.01-.01-.02-.02,0,0-.01-.01-.02-.02,0,0-.01-.01-.02-.01-.27-.18-.42-.33-.72-.46-1.7-.74-2.73-1.1-4.68-1.71-4.54-1.41-9.54-2.75-14.15-4.33-4.11-1.41-5.52-1.83-10.34-3.72-4.14-1.62-9.72-3.38-15.3-5.09,4.74.29,9.55.15,14.59-.19,1.53-.1,3.78-.48,4.3-.63,4.21-1.14,6.67-2.49,9.9-4.78-7.06-.37-14.08-1.3-21.06-2.03-15.1-1.59-29.62-3.09-43.85-8.65-5.55-4.31-11.01-9.79-16.01-14.51-.48-.45-.64-.62-.88-.83-3.04-2.74-6.02-5.36-9.1-7.87,3.08-.44,5.32-2.01,7.46-6.05-.28-.1-.41-.14-.49-.14.09,0,.21.04.5.14.88-1.06,1.99-2.12,2.94-3.11.32-.33.32-.4-.18-.47-2.25-.3-4.84-.52-7.07-.84-.55-.08-.52-.13-.11-.24,3.68-1,7.32-2.21,10.82-3.74.53-.23.59-.43-.1-.8-1.8-.95-3.98-2.1-5.89-3-.23-.11-.21-.17-.03-.27,8.23-4.46,15.73-10.12,23.91-14.67.46-.26.51-.46-.03-.81-.77-.51-1.83-1.16-2.65-1.71,0,0,0,0,0,0,2.76-1.15,5.5-2.31,8.33-3.3-.06-.33-.15-.63-.27-.9.13.27.22.57.27.9,6.33-2.51,12.57-5.34,18.9-7.8.49-.19.5-.33-.02-.62-.85-.47-2.04-1.03-2.96-1.5-.24-.12-.17-.21.04-.26,1.98-.5,4.59-.75,6.48-1.11,6.56-1.26,12.8-2.31,19.23-3.64.22-.05.24-.1,0-.2-1.99-.83-4.44-1.74-6.35-2.56-.74-.32-.9-.42-.09-.56,6.26-1.1,12.78-1.87,19.11-2.48.38-.04.34-.12.09-.25-2.35-1.25-4.8-2.24-7.38-3,0,0,0,0-.01,0,1.12-.57,1.95-.98,3.24-1.18,5.99-.91,12.2-1.75,18.18-2.75.5-.08.61-.17,0-.4-2.89-1.09-6.21-2.25-9.13-3.31-.28-.1-.4-.18-.4-.26,0-.11.25-.19.31-.21.69-.23,18.35-7.03,18.04-9.55-.18-1.47-6.68-3.09-7.03-3.11,0,0-.26-.01-.23-.08.02-.05.1-.15.05-.14-.01,0-.03,0-.05.01.02,0,.04,0,.06-.01,4.52-1.58,9.28-2.83,13.75-4.45.22-.08.33-.17.33-.26,0-.13-.22-.24-.28-.27-.31-.16-1.05-.7-2.73-2.18,1.99-1.3,5.17-3.31,9.19-5.54,9.18-5.09,10.8-4.72,14.34-7.88,6.45-5.76,8.82-13.91,8.6-14.04Z"/>
      <path class="cls-2" d="m1585.52,863.77s.01,0,.01,0c0,0,0,0-.01,0-.02,0,0,0,0,0Z"/>
    </g>
    <path class="cls-3" d="m1693.15,767.73s0,0,0,0,0,0,0,0Z"/>
    <path class="cls-3" d="m1693.13,767.76s0-.03.01-.03c0,0,0,.04-.01.03Z"/>
    <path class="cls-4" d="m1612.83,833.6c.36-.09.15-.12-.27-.13-11.96-.18-26.39-5.1-37.1-7.27-5.64-1.15-7.7-1.08-11.27-.59-7.65,1.06-9.08,6.32-14.84,9.68-2.78,1.62-5.62,2.75-8.58,3.82-.34.12-.34.16-.29.34.06.18.5.04.61,0,2.63-1.21,10.05-1.94,11.98-1.85,3.39.16,8.75.65,10.2.37,15.31-2.95,28.94-4.05,43.85-3.5,2.26.08,3.59-.32,5.71-.87.03,0-.03,0,0,0Z"/>
    <path class="cls-2" d="m1558.9,829.38c-3.16,4.73,1.95,7.73,5.85,3.33.44-.49.23-1.24-.16-1.75-.12-.15-.35-.08-.43.07-.79,1.42-1.52,2.05-2.81.8-.13-.12-.16-.44-.14-.54.36-1.39-.78-4.21-2.31-1.91-.13-.3-.11-.24,0,0Z"/>
    <path class="cls-4" d="m1578.66,833.44c-10.53,3.02-21.06,6.21-31.91,7.78-5.45.91-11.01.76-16.4,2.11-4.05,1-8.15,2.48-11.45,5.12-1.1.86-2.15,1.79-3.07,2.85-.21.25.11.64.4.42,2.19-1.55,4.47-3.08,6.87-4.26,4.86-2.34,10.26-3.4,15.64-3.77,2.76-.2,5.51-.57,8.24-1,10.92-1.72,21.48-5.04,31.86-8.72.15-.05.23-.22.18-.37-.05-.15-.21-.22-.35-.18h0Z"/>
  </g>
</svg>